<mxfile host="app.diagrams.net" modified="2023-05-18T15:44:31.016Z" agent="Mozilla/5.0 (Windows NT 10.0; Win64; x64) AppleWebKit/537.36 (KHTML, like Gecko) Chrome/113.0.0.0 Safari/537.36" etag="jA8BV6_FZ503rMS7ArqU" version="21.3.0" type="github">
  <diagram id="9H7QCt6enQdqbtsSZbtc" name="第 1 页">
    <mxGraphModel dx="1069" dy="583" grid="0" gridSize="10" guides="1" tooltips="1" connect="1" arrows="1" fold="1" page="1" pageScale="1" pageWidth="827" pageHeight="1169" math="0" shadow="0">
      <root>
        <mxCell id="0" />
        <mxCell id="1" parent="0" />
        <mxCell id="-naPaSE0IvHComEQYOpS-8" value="" style="rounded=0;whiteSpace=wrap;html=1;fillColor=#fad9d5;strokeColor=#ae4132;glass=1;" vertex="1" parent="1">
          <mxGeometry x="144" y="252" width="550" height="250" as="geometry" />
        </mxCell>
        <mxCell id="-naPaSE0IvHComEQYOpS-3" value="" style="edgeStyle=orthogonalEdgeStyle;rounded=0;orthogonalLoop=1;jettySize=auto;html=1;" edge="1" parent="1" source="-naPaSE0IvHComEQYOpS-1" target="-naPaSE0IvHComEQYOpS-2">
          <mxGeometry relative="1" as="geometry" />
        </mxCell>
        <mxCell id="-naPaSE0IvHComEQYOpS-1" value="业务安全客户" style="shape=umlActor;verticalLabelPosition=bottom;verticalAlign=top;html=1;" vertex="1" parent="1">
          <mxGeometry x="94" y="162" width="30" height="60" as="geometry" />
        </mxCell>
        <mxCell id="-naPaSE0IvHComEQYOpS-25" style="edgeStyle=orthogonalEdgeStyle;rounded=0;orthogonalLoop=1;jettySize=auto;html=1;entryX=0.5;entryY=0;entryDx=0;entryDy=0;" edge="1" parent="1" source="-naPaSE0IvHComEQYOpS-2" target="-naPaSE0IvHComEQYOpS-12">
          <mxGeometry relative="1" as="geometry" />
        </mxCell>
        <mxCell id="-naPaSE0IvHComEQYOpS-2" value="业务安全" style="whiteSpace=wrap;html=1;verticalAlign=top;fillColor=#e1d5e7;strokeColor=#9673a6;glass=1;rounded=1;" vertex="1" parent="1">
          <mxGeometry x="164" y="177" width="95" height="30" as="geometry" />
        </mxCell>
        <mxCell id="-naPaSE0IvHComEQYOpS-12" value="数据校验" style="rounded=1;whiteSpace=wrap;html=1;fillColor=#dae8fc;strokeColor=#6c8ebf;glass=1;" vertex="1" parent="1">
          <mxGeometry x="159" y="272" width="105" height="20" as="geometry" />
        </mxCell>
        <mxCell id="-naPaSE0IvHComEQYOpS-13" value="数据准备" style="rounded=1;whiteSpace=wrap;html=1;fillColor=#d5e8d4;strokeColor=#82b366;glass=1;" vertex="1" parent="1">
          <mxGeometry x="159" y="312" width="105" height="20" as="geometry" />
        </mxCell>
        <mxCell id="-naPaSE0IvHComEQYOpS-27" value="" style="edgeStyle=orthogonalEdgeStyle;rounded=0;orthogonalLoop=1;jettySize=auto;html=1;" edge="1" parent="1" source="-naPaSE0IvHComEQYOpS-14" target="-naPaSE0IvHComEQYOpS-26">
          <mxGeometry relative="1" as="geometry" />
        </mxCell>
        <mxCell id="-naPaSE0IvHComEQYOpS-14" value="决策执行" style="rounded=1;whiteSpace=wrap;html=1;fillColor=#ffe6cc;strokeColor=#d79b00;glass=1;" vertex="1" parent="1">
          <mxGeometry x="159" y="352" width="105" height="20" as="geometry" />
        </mxCell>
        <mxCell id="-naPaSE0IvHComEQYOpS-15" value="决策输出" style="rounded=1;whiteSpace=wrap;html=1;fillColor=#fff2cc;strokeColor=#d6b656;glass=1;" vertex="1" parent="1">
          <mxGeometry x="159" y="392" width="105" height="20" as="geometry" />
        </mxCell>
        <mxCell id="-naPaSE0IvHComEQYOpS-16" value="规则引擎-数据校验" style="rounded=1;whiteSpace=wrap;html=1;fillColor=#dae8fc;strokeColor=#6c8ebf;glass=1;" vertex="1" parent="1">
          <mxGeometry x="564" y="272" width="115" height="20" as="geometry" />
        </mxCell>
        <mxCell id="-naPaSE0IvHComEQYOpS-17" value="规则引擎-数据准备" style="rounded=1;whiteSpace=wrap;html=1;fillColor=#d5e8d4;strokeColor=#82b366;glass=1;" vertex="1" parent="1">
          <mxGeometry x="564" y="312" width="115" height="20" as="geometry" />
        </mxCell>
        <mxCell id="-naPaSE0IvHComEQYOpS-44" style="edgeStyle=orthogonalEdgeStyle;rounded=0;orthogonalLoop=1;jettySize=auto;html=1;entryX=1;entryY=0.5;entryDx=0;entryDy=0;" edge="1" parent="1" source="-naPaSE0IvHComEQYOpS-18" target="-naPaSE0IvHComEQYOpS-43">
          <mxGeometry relative="1" as="geometry" />
        </mxCell>
        <mxCell id="-naPaSE0IvHComEQYOpS-18" value="规则引擎-决策执行" style="rounded=1;whiteSpace=wrap;html=1;fillColor=#ffe6cc;strokeColor=#d79b00;glass=1;" vertex="1" parent="1">
          <mxGeometry x="564" y="352" width="115" height="20" as="geometry" />
        </mxCell>
        <mxCell id="-naPaSE0IvHComEQYOpS-19" value="规则引擎-决策输出" style="rounded=1;whiteSpace=wrap;html=1;fillColor=#fff2cc;strokeColor=#d6b656;glass=1;" vertex="1" parent="1">
          <mxGeometry x="564" y="392" width="115" height="20" as="geometry" />
        </mxCell>
        <mxCell id="-naPaSE0IvHComEQYOpS-26" value="策略" style="whiteSpace=wrap;html=1;rounded=1;align=left;fillColor=#fad7ac;strokeColor=#b46504;glass=1;" vertex="1" parent="1">
          <mxGeometry x="294" y="322" width="130" height="80" as="geometry" />
        </mxCell>
        <mxCell id="-naPaSE0IvHComEQYOpS-28" value="&lt;div style=&quot;&quot;&gt;&lt;span style=&quot;background-color: initial;&quot;&gt;子策略&lt;/span&gt;&lt;/div&gt;" style="rounded=1;whiteSpace=wrap;html=1;align=left;fillColor=#b0e3e6;strokeColor=#0e8088;glass=1;" vertex="1" parent="1">
          <mxGeometry x="323" y="329.5" width="91" height="62.5" as="geometry" />
        </mxCell>
        <mxCell id="-naPaSE0IvHComEQYOpS-29" value="规则" style="ellipse;whiteSpace=wrap;html=1;aspect=fixed;fillColor=#f8cecc;strokeColor=#b85450;gradientColor=#ea6b66;shadow=0;" vertex="1" parent="1">
          <mxGeometry x="364" y="342" width="40" height="40" as="geometry" />
        </mxCell>
        <mxCell id="-naPaSE0IvHComEQYOpS-30" value="本地缓存" style="rounded=1;whiteSpace=wrap;html=1;fillColor=#dae8fc;gradientColor=#7ea6e0;strokeColor=#6c8ebf;" vertex="1" parent="1">
          <mxGeometry x="344" y="412" width="130" height="30" as="geometry" />
        </mxCell>
        <mxCell id="-naPaSE0IvHComEQYOpS-45" style="edgeStyle=orthogonalEdgeStyle;rounded=0;orthogonalLoop=1;jettySize=auto;html=1;entryX=0;entryY=0.5;entryDx=0;entryDy=0;" edge="1" parent="1" source="-naPaSE0IvHComEQYOpS-31" target="-naPaSE0IvHComEQYOpS-30">
          <mxGeometry relative="1" as="geometry" />
        </mxCell>
        <mxCell id="-naPaSE0IvHComEQYOpS-31" value="传统决策引擎事件处理器" style="rounded=1;whiteSpace=wrap;html=1;fillColor=#fff2cc;gradientColor=#ffd966;strokeColor=#d6b656;" vertex="1" parent="1">
          <mxGeometry x="234" y="452" width="140" height="30" as="geometry" />
        </mxCell>
        <mxCell id="-naPaSE0IvHComEQYOpS-32" value="" style="edgeStyle=orthogonalEdgeStyle;rounded=0;orthogonalLoop=1;jettySize=auto;html=1;" edge="1" parent="1" source="-naPaSE0IvHComEQYOpS-33" target="-naPaSE0IvHComEQYOpS-34">
          <mxGeometry relative="1" as="geometry" />
        </mxCell>
        <mxCell id="-naPaSE0IvHComEQYOpS-33" value="TrustGuard客户" style="shape=umlActor;verticalLabelPosition=bottom;verticalAlign=top;html=1;" vertex="1" parent="1">
          <mxGeometry x="729" y="162" width="30" height="60" as="geometry" />
        </mxCell>
        <mxCell id="-naPaSE0IvHComEQYOpS-35" style="edgeStyle=orthogonalEdgeStyle;rounded=0;orthogonalLoop=1;jettySize=auto;html=1;entryX=0.5;entryY=0;entryDx=0;entryDy=0;" edge="1" parent="1" source="-naPaSE0IvHComEQYOpS-34" target="-naPaSE0IvHComEQYOpS-16">
          <mxGeometry relative="1" as="geometry" />
        </mxCell>
        <mxCell id="-naPaSE0IvHComEQYOpS-34" value="TrustGuard" style="whiteSpace=wrap;html=1;verticalAlign=top;fillColor=#e1d5e7;strokeColor=#9673a6;rounded=1;glass=1;" vertex="1" parent="1">
          <mxGeometry x="574" y="177" width="95" height="30" as="geometry" />
        </mxCell>
        <mxCell id="-naPaSE0IvHComEQYOpS-46" style="edgeStyle=orthogonalEdgeStyle;rounded=0;orthogonalLoop=1;jettySize=auto;html=1;entryX=1;entryY=0.5;entryDx=0;entryDy=0;" edge="1" parent="1" source="-naPaSE0IvHComEQYOpS-36" target="-naPaSE0IvHComEQYOpS-30">
          <mxGeometry relative="1" as="geometry" />
        </mxCell>
        <mxCell id="-naPaSE0IvHComEQYOpS-36" value="规则引擎事件处理器" style="rounded=1;whiteSpace=wrap;html=1;fillColor=#b1ddf0;strokeColor=#10739e;" vertex="1" parent="1">
          <mxGeometry x="454" y="452" width="120" height="30" as="geometry" />
        </mxCell>
        <mxCell id="-naPaSE0IvHComEQYOpS-38" style="edgeStyle=orthogonalEdgeStyle;rounded=0;orthogonalLoop=1;jettySize=auto;html=1;" edge="1" parent="1" source="-naPaSE0IvHComEQYOpS-37" target="-naPaSE0IvHComEQYOpS-31">
          <mxGeometry relative="1" as="geometry" />
        </mxCell>
        <mxCell id="-naPaSE0IvHComEQYOpS-39" style="edgeStyle=orthogonalEdgeStyle;rounded=0;orthogonalLoop=1;jettySize=auto;html=1;exitX=0.5;exitY=0;exitDx=0;exitDy=0;entryX=0.5;entryY=1;entryDx=0;entryDy=0;" edge="1" parent="1" source="-naPaSE0IvHComEQYOpS-37" target="-naPaSE0IvHComEQYOpS-36">
          <mxGeometry relative="1" as="geometry" />
        </mxCell>
        <mxCell id="-naPaSE0IvHComEQYOpS-37" value="管理域数据" style="rounded=1;whiteSpace=wrap;html=1;fillColor=#d0cee2;strokeColor=#56517e;" vertex="1" parent="1">
          <mxGeometry x="343.5" y="542" width="151" height="35" as="geometry" />
        </mxCell>
        <mxCell id="-naPaSE0IvHComEQYOpS-43" value="规则" style="ellipse;whiteSpace=wrap;html=1;aspect=fixed;fillColor=#f8cecc;gradientColor=#ea6b66;strokeColor=#b85450;" vertex="1" parent="1">
          <mxGeometry x="484" y="342" width="40" height="40" as="geometry" />
        </mxCell>
        <mxCell id="-naPaSE0IvHComEQYOpS-47" value="&lt;b&gt;传统决策引擎&lt;/b&gt;" style="text;html=1;strokeColor=none;fillColor=none;align=center;verticalAlign=middle;whiteSpace=wrap;rounded=0;" vertex="1" parent="1">
          <mxGeometry x="214" y="252" width="90" height="20" as="geometry" />
        </mxCell>
        <mxCell id="-naPaSE0IvHComEQYOpS-48" value="&lt;b&gt;规则引擎&lt;/b&gt;" style="text;html=1;strokeColor=none;fillColor=none;align=center;verticalAlign=middle;whiteSpace=wrap;rounded=0;" vertex="1" parent="1">
          <mxGeometry x="544" y="252" width="90" height="20" as="geometry" />
        </mxCell>
      </root>
    </mxGraphModel>
  </diagram>
</mxfile>
